# xmcd
#
# Track frame offsets:
#	187
#	17615
#	32032
#	48100
#	65490
#	84370
#	102977
#	124572
#	143620
#	160670
#
# Disc length: 2367 seconds
#
# Revision: 5
# Processed by: cddbd v1.5.2PL0 Copyright (c) Steve Scherf et al.
# Submitted via: audiograbber 1.83.01
#
DISCID=70093d0a
DTITLE=K.T. Oslin - Love In A Small Town
DYEAR=1990
DGENRE=Country
TTITLE0=Come Next Monday
TTITLE1=OO-WEE
TTITLE2=Mary And Willi
TTITLE3=Love Is Strange
TTITLE4=Momma Was A Dancer
TTITLE5=New Way Home
TTITLE6=Cornell Crawford 
TTITLE7=Still On My Mind
TTITLE8=You Call Everybody Darling
TTITLE9=Two Hearts
EXTD=
EXTT0=
EXTT1=
EXTT2=
EXTT3=
EXTT4=
EXTT5=
EXTT6=
EXTT7=
EXTT8=
EXTT9=
PLAYORDER=
